{"title":"True Grit 2010 Scr H264 Feel-Free","uid":6076838,"size":1350504220,"categoryP":"video","categoryS":"movies","magnet":"?xt=urn:btih:1cb97a8294c3f068a408b2daea5da43b1d784ce6&amp;dn=True+Grit+2010+Scr+H264+Feel-Free&amp;tr=udp%3A%2F%2Ftracker.openbittorrent.com%3A80&amp;tr=udp%3A%2F%2Fopen.demonii.com%3A1337&amp;tr=udp%3A%2F%2Ftracker.coppersurfer.tk%3A6969&amp;tr=udp%3A%2F%2Fexodus.desync.com%3A6969","seeders":0,"leechers":1,"uploader":".BONE.","files":7,"time":1293907626,"description":"\nGenre: Adventure | Drama | Western\nLanguage:English\n &lt;a href=&quot;\nhttp://www.imdb.com/title/tt1403865/&quot; rel=&quot;nofollow&quot; target=&quot;_NEW&quot;&gt;\nhttp://www.imdb.com/title/tt1403865/&lt;/a&gt;\n\nSource:Imagine Thx.\n\n\nFormat : MPEG-4\nFormat profile : Base Media\nCodec ID : isom\nFile size : 1.26 GiB\nDuration : 1h 50mn\nOverall bit rate : 1 630 Kbps\nMovie name : True Grit 2010 Scr H264 Feel-Free\n\n\nVideo\nFormat settings, CABAC : Yes\nFormat settings, ReFrames : 4 frames\nCodec ID : avc1\nCodec ID/Info : Advanced Video Coding\nDuration : 1h 50mn\nBit rate mode : Variable\nBit rate : 1 500 Kbps\nWidth : 720 pixels\nHeight : 304 pixels\nDisplay aspect ratio : 2.35:1\nFrame rate mode : Constant\nFrame rate : 23.976 fps\nColor space : YUV\nChroma subsampling : 4:2:0\nBit depth : 8 bits\nScan type : Progressive\nBits/(Pixel*Frame) : 0.286\nStream size : 1.15 GiB (92%)\n\nAudio\nID : 2\nFormat : AAC\nFormat/Info : Advanced Audio Codec\nFormat version : Version 4\nFormat profile : LC\nCodec ID : 40\nDuration : 1h 50mn\nBit rate mode : Variable\nBit rate : 128 Kbps\nChannel(s) : 2 channels\nChannel positions : Front: L R\nSampling rate : 44.1 KHz\nStream size : 101 MiB (8%)\n\n\nPlot:\nA tough U.S. Marshal helps a stubborn young woman track down her father's murderer.\n &lt;a href=&quot;\nhttp://shareimage.org/images/tfdjusxlyszczmvzfxol.png&quot; rel=&quot;nofollow&quot; target=&quot;_NEW&quot;&gt;\nhttp://shareimage.org/images/tfdjusxlyszczmvzfxol.png&lt;/a&gt;\n &lt;a href=&quot;\nhttp://shareimage.org/images/x26tluiusx4gp6mzqn.png&quot; rel=&quot;nofollow&quot; target=&quot;_NEW&quot;&gt;\nhttp://shareimage.org/images/x26tluiusx4gp6mzqn.png&lt;/a&gt;\n &lt;a href=&quot;\nhttp://shareimage.org/images/q9wdb9izw7wpj2dg82.png&quot; rel=&quot;nofollow&quot; target=&quot;_NEW&quot;&gt;\nhttp://shareimage.org/images/q9wdb9izw7wpj2dg82.png&lt;/a&gt;\n &lt;a href=&quot;\nhttp://shareimage.org/images/qsib7dsfilvlpuwd10oe.png&quot; rel=&quot;nofollow&quot; target=&quot;_NEW&quot;&gt;\nhttp://shareimage.org/images/qsib7dsfilvlpuwd10oe.png&lt;/a&gt;","torrent":{"xt":"urn:btih:1cb97a8294c3f068a408b2daea5da43b1d784ce6","amp;dn":"True+Grit+2010+Scr+H264+Feel-Free","amp;tr":["udp%3A%2F%2Ftracker.openbittorrent.com%3A80","udp%3A%2F%2Fopen.demonii.com%3A1337","udp%3A%2F%2Ftracker.coppersurfer.tk%3A6969","udp%3A%2F%2Fexodus.desync.com%3A6969"],"infoHash":"1cb97a8294c3f068a408b2daea5da43b1d784ce6","infoHashBuffer":{"type":"Buffer","data":[28,185,122,130,148,195,240,104,164,8,178,218,234,93,164,59,29,120,76,230]},"announce":[],"urlList":[]}}